<!DOCTYPE svg PUBLIC "-//W3C//DTD SVG 1.1//EN" "http://www.w3.org/Graphics/SVG/1.1/DTD/svg11.dtd">
<!-- Uploaded to: SVG Repo, www.svgrepo.com, Transformed by: SVG Repo Mixer Tools -->
<svg version="1.1" id="Layer_1" xmlns="http://www.w3.org/2000/svg" xmlns:xlink="http://www.w3.org/1999/xlink" viewBox="0 0 512 512" xml:space="preserve" width="800px" height="800px" fill="#000000">
<g id="SVGRepo_bgCarrier" stroke-width="0"/>
<g id="SVGRepo_tracerCarrier" stroke-linecap="round" stroke-linejoin="round"/>
<g id="SVGRepo_iconCarrier"> <g> <path style="fill:#14bab9;" d="M23.982,110.725v103.302c0,13.662,11.074,24.736,24.737,24.736h4.327 c13.663,0,24.737-11.074,24.737-24.736v-24.446v-25.509v-13.593v-16.63v-23.124C77.781,110.725,23.982,110.725,23.982,110.725z"/> <path style="fill:#14bab9;" d="M381.586,119.519v16.943c0,13.662,11.073,24.736,24.737,24.736h4.327 c13.663,0,24.737-11.073,24.737-24.736v-16.943C435.386,119.519,381.586,119.519,381.586,119.519z"/> </g> <g> <polygon style="fill:#ffffff;" points="61.228,64.651 61.228,42.916 66.045,42.916 66.045,27.239 50.883,8.084 35.719,27.239 35.719,42.916 40.936,42.916 40.936,64.651 35.719,64.651 35.719,110.725 66.045,110.725 66.045,64.651 "/> <polyline style="fill:#ffffff;" points="472.62,49.995 472.62,8.084 344.35,8.084 344.35,49.995 "/> </g> <g style="opacity:0.1;"> <path style="fill:#000000;" d="M407.146,136.463v-16.943h-25.56v16.943c0,13.662,11.073,24.736,24.737,24.736h4.327 c3.8,0,7.4-0.859,10.617-2.391C412.917,154.835,407.146,146.323,407.146,136.463z"/> </g> <g style="opacity:0.15;"> <rect x="344.345" y="8.084" style="fill:#000000;" width="25.562" height="41.911"/> </g> <path style="fill:#ffffff;" d="M429.872,49.995h-100.92v6.19v24.628v27.306c0,6.295,5.103,11.4,11.4,11.4H476.62 c6.297,0,11.4-5.105,11.4-11.4V80.813V56.185v-6.19h-33.355"/> <g style="opacity:0.15;"> <path style="fill:#000000;" d="M49.298,214.027V110.725H23.982v103.302c0,13.662,11.074,24.736,24.737,24.736h4.327 c3.753,0,7.308-0.84,10.494-2.336C55.127,232.479,49.298,223.936,49.298,214.027z"/> </g> <g style="opacity:0.15;"> <path style="fill:#000000;" d="M354.269,108.119V80.813V56.185v-6.19h-25.317v6.19v24.628v27.306c0,6.295,5.103,11.4,11.4,11.4 h25.316C359.372,119.519,354.269,114.414,354.269,108.119z"/> </g> <path style="fill:#000000;" d="M488.02,41.911h-7.316V8.084c0-4.466-3.618-8.084-8.084-8.084H344.35 c-4.466,0-8.084,3.618-8.084,8.084v33.826h-7.314c-4.466,0-8.084,3.618-8.084,8.084v58.124c0,10.743,8.741,19.484,19.484,19.484 h33.15v8.859c0,16.075,11.62,29.477,26.899,32.274v156.377c0,53.173-24.44,100.741-62.672,132.074 c17.546-23.149,27.972-51.977,27.972-83.198c0-76.099-61.911-138.009-138.008-138.009c-76.099,0-138.01,61.911-138.01,138.009 c0,27.159,7.89,52.508,21.492,73.882c-32.17-31.066-52.21-74.614-52.21-122.759V246.3c15.28-2.796,26.901-16.2,26.901-32.274V189.58 c0-4.466-3.618-8.084-8.084-8.084s-8.084,3.618-8.084,8.084v24.446c0,9.183-7.471,16.651-16.652,16.651h-4.327 c-9.183,0-16.652-7.47-16.652-16.651v-67.981h37.632v18.027c0,4.466,3.618,8.084,8.084,8.084s8.084-3.618,8.084-8.084v-53.347 c0-4.466-3.618-8.084-8.084-8.084h-3.653V64.651c0-3.302-1.98-6.142-4.817-7.397v-6.939c2.837-1.255,4.817-4.095,4.817-7.397V27.239 c0-1.821-0.614-3.589-1.745-5.017L57.222,3.068C55.688,1.13,53.353,0,50.883,0c-2.471,0-4.805,1.13-6.339,3.067L29.38,22.222 c-1.131,1.428-1.745,3.197-1.745,5.018v15.677c0,3.455,2.168,6.404,5.217,7.561v6.612c-3.049,1.157-5.217,4.107-5.217,7.561v37.989 h-3.653c-4.466,0-8.084,3.618-8.084,8.084v103.302c0,16.075,11.62,29.477,26.899,32.274v78.812 c0,98.411,76.462,179.294,173.096,186.377c3.891,0.331,7.826,0.51,11.801,0.51c0.333,0,0.663-0.011,0.995-0.013 c0.332,0.001,0.662,0.013,0.994,0.013c103.05,0,186.886-83.836,186.886-186.886V168.737c15.28-2.796,26.901-16.2,26.901-32.274 v-8.859h33.15c10.743,0,19.484-8.741,19.484-19.484V49.995C496.104,45.529,492.485,41.911,488.02,41.911z M32.066,129.877v-11.069 h3.653h30.327h3.653v11.069H32.066z M43.803,72.211c3.049-1.157,5.217-4.107,5.217-7.561V42.916c0-3.455-2.168-6.404-5.217-7.561 v-5.303l7.08-8.943l7.077,8.943v5.467c-2.837,1.255-4.817,4.095-4.817,7.397v21.734c0,3.302,1.98,6.142,4.817,7.397v30.593H43.803 V72.211z M105.851,373.991c0-67.183,54.658-121.841,121.842-121.841c67.183,0,121.84,54.658,121.84,121.841 c0,66.851-54.119,121.291-120.845,121.828c-3.883-0.023-7.735-0.171-11.553-0.449C154.877,489.999,105.851,437.617,105.851,373.991z M427.302,136.463c0,9.183-7.471,16.651-16.652,16.651h-4.327c-9.183,0-16.652-7.47-16.652-16.651v-8.859h37.631L427.302,136.463 L427.302,136.463z M479.935,108.119c0,1.828-1.487,3.316-3.316,3.316h-41.234h-53.8h-41.234c-1.828,0-3.316-1.487-3.316-3.316 v-50.04h92.836c4.466,0,8.084-3.618,8.084-8.084s-3.618-8.084-8.084-8.084h-77.438V16.168h112.101v25.742h-9.871 c-4.466,0-8.084,3.618-8.084,8.084s3.618,8.084,8.084,8.084h25.271V108.119z"/> </g>
</svg>