<!DOCTYPE svg PUBLIC "-//W3C//DTD SVG 1.1//EN" "http://www.w3.org/Graphics/SVG/1.1/DTD/svg11.dtd">
<!-- Uploaded to: SVG Repo, www.svgrepo.com, Transformed by: SVG Repo Mixer Tools -->
<svg height="800px" width="800px" version="1.1" id="Layer_1" xmlns="http://www.w3.org/2000/svg" xmlns:xlink="http://www.w3.org/1999/xlink" viewBox="0 0 511.999 511.999" xml:space="preserve" fill="#000000">
<g id="SVGRepo_bgCarrier" stroke-width="0"/>
<g id="SVGRepo_tracerCarrier" stroke-linecap="round" stroke-linejoin="round"/>
<g id="SVGRepo_iconCarrier"> <g> <path style="fill:#ffffff;" d="M345.244,109.156V92.174c0-10.85-6.19-20.749-15.945-25.5l0,0 c-6.256-3.046-11.173-8.286-13.818-14.722l-7.097-17.275c-6.633-16.145-22.36-26.687-39.816-26.687H220.2 c-17.455,0-33.183,10.541-39.815,26.688l-7.097,17.275c-2.644,6.436-7.562,11.676-13.817,14.722l0,0 c-9.755,4.75-15.945,14.65-15.945,25.5v16.982h201.718V109.156z"/> <path style="fill:#ffffff;" d="M345.244,402.844v16.982c0,10.85-6.19,20.749-15.945,25.5l0,0 c-6.256,3.046-11.173,8.286-13.818,14.722l-7.097,17.275c-6.633,16.145-22.36,26.688-39.815,26.688h-48.368 c-17.455,0-33.183-10.541-39.815-26.688l-7.097-17.275c-2.644-6.436-7.562-11.676-13.818-14.722l0,0 c-9.755-4.75-15.945-14.65-15.945-25.5v-16.982H345.244z"/> </g> <g> <path style="fill:#ffffff;" d="M384.056,154.839c-11.305,0-20.47,9.165-20.47,20.47v28.535c0,11.305,9.165,20.47,20.47,20.47 c11.305,0,20.47-9.165,20.47-20.47v-28.535C404.526,164.004,395.361,154.839,384.056,154.839z"/> <path style="fill:#ffffff;" d="M384.056,246.443c-11.305,0-20.47,9.165-20.47,20.47v28.535c0,11.305,9.165,20.47,20.47,20.47 c11.305,0,20.47-9.165,20.47-20.47v-28.535C404.526,255.607,395.361,246.443,384.056,246.443z"/> </g> <path style="opacity:0.1;enable-background:new ;" d="M143.526,419.826c0,10.85,6.19,20.749,15.945,25.499l0,0 c1.104,0.538,2.149,1.167,3.165,1.836h163.498c1.015-0.669,2.061-1.298,3.164-1.836l0,0c9.755-4.75,15.945-14.65,15.945-25.499 v-16.982H143.526V419.826z"/> <path style="opacity:0.1;enable-background:new ;" d="M329.299,66.674L329.299,66.674c-1.104-0.537-2.149-1.166-3.164-1.835 H162.635c-1.015,0.669-2.061,1.298-3.164,1.835l0,0c-9.755,4.75-15.945,14.65-15.945,25.5v16.982h201.719V92.174 C345.244,81.324,339.054,71.425,329.299,66.674z"/> <path style="fill:#ffffff;" d="M327.928,91.475H160.841c-29.474,0-53.367,23.893-53.367,53.367v222.315 c0,29.474,23.893,53.367,53.367,53.367h167.088c29.474,0,53.367-23.893,53.367-53.367V144.843 C381.296,115.369,357.402,91.475,327.928,91.475z"/> <path style="fill:#ffffff;" d="M160.841,388.561c-11.803,0-21.404-9.603-21.404-21.404V144.843c0-11.803,9.602-21.404,21.404-21.404 H327.93c11.802,0,21.404,9.602,21.404,21.404v222.314c0,11.802-9.603,21.404-21.404,21.404L160.841,388.561L160.841,388.561z"/> <path style="fill:#14bab9;" d="M244.385,332.945c-119.907-50.984-78.517-168.181,0-106.603 C322.901,164.763,364.293,281.96,244.385,332.945z"/> <path d="M327.93,115.447H217.823c-4.414,0-7.991,3.578-7.991,7.991c0,4.413,3.577,7.991,7.991,7.991H327.93 c7.396,0,13.414,6.018,13.414,13.414v222.314c0,7.396-6.016,13.414-13.414,13.414H160.841c-7.396,0-13.414-6.018-13.414-13.414 V144.843c0-7.396,6.016-13.414,13.414-13.414h25.019c4.414,0,7.991-3.578,7.991-7.991c0-4.413-3.577-7.991-7.991-7.991h-25.019 c-16.208,0-29.395,13.187-29.395,29.395v222.314c0,16.208,13.187,29.395,29.395,29.395H327.93c16.208,0,29.395-13.187,29.395-29.395 V144.843C357.325,128.634,344.138,115.447,327.93,115.447z"/> <path d="M183.839,205.265c-36.021,18.288-22.586,67.38-2.681,92.082c14.15,17.56,34.372,32.011,60.1,42.951 c1.963,0.834,4.265,0.846,6.253,0c15.76-6.702,29.644-14.862,41.268-24.257c7.934-6.413-1.965-18.957-10.045-12.429 c-9.707,7.845-21.251,14.772-34.351,20.617c-48.279-21.527-66.405-53.393-67.184-76.362c-0.444-13.118,4.741-23.716,13.873-28.352 c12.215-6.202,29.849-1.421,48.381,13.113c2.895,2.27,6.966,2.27,9.863,0c21.464-16.834,42.024-20.431,53.652-9.386 c11.182,10.618,13.315,34.414-4.243,59.352c-5.95,8.453,7.134,17.626,13.067,9.201c10.069-14.303,15.522-29.675,15.77-44.456 c0.44-26.283-18.554-48.82-46.268-46.221c-11.816,1.108-24.214,6.235-36.917,15.256C222.395,200.843,200.572,196.77,183.839,205.265 z"/> <path d="M274.193,176.464v-10.971c0-4.413-3.577-7.991-7.991-7.991s-7.991,3.578-7.991,7.991v10.971 c0,4.413,3.577,7.991,7.991,7.991S274.193,180.877,274.193,176.464z"/> <path d="M297.799,176.464v-21.625c0-4.413-3.577-7.991-7.991-7.991s-7.991,3.578-7.991,7.991v21.625 c0,4.413,3.577,7.991,7.991,7.991S297.799,180.877,297.799,176.464z"/> <path d="M321.404,176.464v-21.625c0-4.413-3.577-7.991-7.991-7.991s-7.991,3.578-7.991,7.991v21.625 c0,4.413,3.577,7.991,7.991,7.991S321.404,180.877,321.404,176.464z"/> <path d="M389.287,147.339v-2.496c0-24.878-14.891-46.329-36.221-55.95c-1.157-12.528-8.844-23.838-20.268-29.401 c-10.076-4.907-13.091-18.281-17.022-27.849C307.88,12.42,289.349,0,268.569,0h-48.368c-20.78,0-39.31,12.42-47.207,31.641 c-3.811,9.277-6.754,23.448-17.023,27.849c-11.423,5.563-19.109,16.873-20.267,29.401c-21.33,9.621-36.221,31.072-36.221,55.95 v222.315c0,24.879,14.891,46.329,36.221,55.951c1.157,12.527,8.844,23.838,20.267,29.4c10.035,4.887,13.119,18.346,17.023,27.85 c7.896,19.221,26.427,31.641,47.207,31.641h48.368c20.78,0,39.31-12.42,47.207-31.641c4.01-9.762,6.655-22.801,17.02-27.849 c11.425-5.563,19.112-16.873,20.269-29.402c21.33-9.621,36.221-31.072,36.221-55.951v-43.74 c13.202-2.464,23.229-14.064,23.229-27.97v-28.535c0-13.906-10.028-25.506-23.229-27.971v-7.128 c13.202-2.464,23.229-14.065,23.229-27.97v-28.535C412.517,161.404,402.489,149.803,389.287,147.339z M162.971,73.859 c14.544-7.082,19.105-22.265,24.806-36.145c5.424-13.202,18.151-21.733,32.424-21.733h48.368c14.272,0,27,8.531,32.424,21.734 c5.783,14.076,10.087,28.976,24.807,36.145c4.375,2.131,7.778,5.765,9.7,10.094c-0.157-0.019-0.314-0.026-0.471-0.044 c-2.352-0.274-4.733-0.424-7.1-0.424H160.841c-1.51,0-3.02,0.184-4.525,0.184c-1.015,0.075-2.036,0.157-3.047,0.283 C155.192,79.625,158.594,75.99,162.971,73.859z M373.306,367.156c0,20.052-13.08,37.097-31.152,43.08 c-4.573,1.511-9.408,2.296-14.225,2.296c0,0-28.375,0-28.486,0c-10.31,0-10.33,15.981,0,15.981h28.486 c2.527,0,5.063-0.154,7.571-0.468c-1.923,4.328-5.325,7.963-9.701,10.094c-14.346,6.986-19.168,22.418-24.807,36.145 c-5.424,13.203-18.151,21.733-32.424,21.733H220.2c-14.272,0-27-8.531-32.424-21.733c-5.786-14.085-10.061-28.966-24.807-36.145 c-4.376-2.131-7.779-5.765-9.7-10.094c0.157,0.019,0.314,0.026,0.471,0.044c2.356,0.274,4.728,0.424,7.1,0.424 c0,0,106.402,0,106.714,0c10.293,0,10.342-15.981,0.001-15.981H160.841c-4.832,0-9.639-0.775-14.225-2.296 c-18.073-5.982-31.152-23.028-31.152-43.08V144.843c0-20.048,13.074-37.09,31.14-43.076c4.574-1.513,9.417-2.3,14.236-2.3H327.93 c4.818,0,9.662,0.788,14.236,2.3c18.066,5.987,31.14,23.028,31.14,43.076V367.156z M396.535,266.912v28.535 c0,5.014-2.973,9.347-7.248,11.329v-51.194C393.563,257.565,396.535,261.898,396.535,266.912z M396.535,203.845 c0,5.014-2.973,9.347-7.248,11.329V163.98c4.276,1.982,7.248,6.315,7.248,11.33V203.845z"/> </g>
</svg>