<!DOCTYPE svg PUBLIC "-//W3C//DTD SVG 1.1//EN" "http://www.w3.org/Graphics/SVG/1.1/DTD/svg11.dtd">
<!-- Uploaded to: SVG Repo, www.svgrepo.com, Transformed by: SVG Repo Mixer Tools -->
<svg fill="#14bab9" height="800px" width="800px" version="1.1" id="Layer_1" xmlns="http://www.w3.org/2000/svg" xmlns:xlink="http://www.w3.org/1999/xlink" viewBox="0 0 503.607 503.607" xml:space="preserve">
<g id="SVGRepo_bgCarrier" stroke-width="0"/>
<g id="SVGRepo_tracerCarrier" stroke-linecap="round" stroke-linejoin="round"/>
<g id="SVGRepo_iconCarrier"> <g> <g> <g> <path d="M134.295,276.985v-33.574c0-4.636-3.758-8.393-8.393-8.393H41.967c-4.636,0-8.393,3.758-8.393,8.393v33.574 c0,4.636,3.758,8.393,8.393,8.393h83.934C130.537,285.379,134.295,281.621,134.295,276.985z M117.508,268.592H50.361v-16.787 h67.148V268.592z"/> <path d="M41.967,218.231h83.934c4.636,0,8.393-3.758,8.393-8.393v-33.574c0-4.636-3.758-8.393-8.393-8.393H41.967 c-4.636,0-8.393,3.758-8.393,8.393v33.574C33.574,214.473,37.332,218.231,41.967,218.231z M50.361,184.657h67.148v16.787H50.361 V184.657z"/> <path d="M486.82,134.295V8.395c0-4.636-3.758-8.393-8.393-8.393H310.557c-4.636,0-8.393,3.758-8.393,8.393v125.9 c-9.277,0-16.787,7.51-16.787,16.787v167.869c0,9.277,7.51,16.787,16.787,16.787h50.361v16.787c-4.636,0-8.393,3.758-8.393,8.393 c0,4.636,3.758,8.393,8.393,8.393v16.787c0,9.277,7.51,16.787,16.787,16.787c0,27.755-22.606,50.361-50.361,50.361H159.475 c-27.755,0-50.361-22.606-50.361-50.361c9.277,0,16.787-7.51,16.787-16.787v-16.787c4.636,0,8.393-3.758,8.393-8.393 c0-4.636-3.758-8.393-8.393-8.393v-18.372c21.063-7.71,41.967-42.303,41.967-73.955V100.721c0-9.277-7.51-16.787-16.787-16.787 h-16.787V16.787C134.295,7.51,126.785,0,117.508,0H50.361c-9.277,0-16.787,7.51-16.787,16.787v67.148H16.787 C7.51,83.934,0,91.444,0,100.721v159.475c0,31.475,20.941,66.187,41.967,73.942v18.385c-4.636,0-8.393,3.758-8.393,8.393 c0,4.636,3.758,8.393,8.393,8.393v16.787c0,9.277,7.51,16.787,16.787,16.787c0,55.542,45.18,100.721,100.721,100.721h159.475 c55.542,0,100.721-45.18,100.721-100.721c9.277,0,16.787-7.51,16.787-16.787v-16.787c4.636,0,8.393-3.758,8.393-8.393 c0-4.636-3.758-8.393-8.393-8.393v-16.787h50.361c9.277,0,16.787-7.51,16.787-16.787V151.082 C503.607,141.805,496.097,134.295,486.82,134.295z M318.951,16.789h151.082v117.506H318.951V16.789z M50.361,16.787h67.148 v67.148H50.361V16.787z M16.787,260.197V100.721h25.18h83.934h25.18v159.475c0,27.678-21.043,58.754-33.574,58.754H50.361 C37.902,318.951,16.787,287.688,16.787,260.197z M58.754,335.738h50.361v16.787H58.754V335.738z M109.115,369.311v16.787h-8.393 H67.148h-8.393v-16.787H109.115z M318.951,486.82H159.475c-46.271,0-83.934-37.664-83.934-83.934h16.787 c0,37.026,30.122,67.148,67.148,67.148h159.475c37.026,0,67.148-30.122,67.148-67.148h16.787 C402.885,449.156,365.221,486.82,318.951,486.82z M419.672,386.098h-8.393h-33.574h-8.393v-16.787h50.361V386.098z M419.672,352.525h-50.361v-16.787h50.361V352.525z M486.82,318.951h-58.754h-67.148h-58.754V151.082h8.361 c0.011,0,0.022,0.002,0.033,0.002h167.869c0.011,0,0.022-0.002,0.033-0.002h8.361V318.951z"/> <path d="M377.705,50.362h-33.574c-4.636,0-8.393,3.758-8.393,8.393V92.33c0,4.636,3.758,8.393,8.393,8.393h33.574 c4.636,0,8.393-3.758,8.393-8.393V58.756C386.098,54.12,382.34,50.362,377.705,50.362z M369.311,83.936h-16.787V67.149h16.787 V83.936z"/> <path d="M444.852,50.362h-33.574c-4.636,0-8.393,3.758-8.393,8.393V92.33c0,4.636,3.758,8.393,8.393,8.393h33.574 c4.636,0,8.393-3.758,8.393-8.393V58.756C453.246,54.12,449.488,50.362,444.852,50.362z M436.459,83.936h-16.787V67.149h16.787 V83.936z"/> </g> </g> </g> </g>
</svg>