<!DOCTYPE svg PUBLIC "-//W3C//DTD SVG 1.1//EN" "http://www.w3.org/Graphics/SVG/1.1/DTD/svg11.dtd">
<!-- Uploaded to: SVG Repo, www.svgrepo.com, Transformed by: SVG Repo Mixer Tools -->
<svg fill="#14bab9" height="800px" width="800px" version="1.1" id="Capa_1" xmlns="http://www.w3.org/2000/svg" xmlns:xlink="http://www.w3.org/1999/xlink" viewBox="0 0 353 353" xml:space="preserve">
<g id="SVGRepo_bgCarrier" stroke-width="0"/>
<g id="SVGRepo_tracerCarrier" stroke-linecap="round" stroke-linejoin="round"/>
<g id="SVGRepo_iconCarrier"> <g> <path d="M202.833,53c0-5.523-4.478-10-10-10h-32.666c-5.522,0-10,4.477-10,10s4.478,10,10,10h32.666 C198.355,63,202.833,58.523,202.833,53z"/> <path d="M301.5,156.49c0-5.523-4.478-10-10-10h-13c-5.522,0-10,4.477-10,10c0,4.29,2.706,7.938,6.5,9.358v52.511 c0,7.681-6.249,13.93-13.93,13.93h-8.72C247.641,224.909,239.386,220,230,220h-43.5v-5h28.667 c22.791,0,41.333-18.542,41.333-41.333V85c0-0.786-0.093-1.569-0.276-2.333l-11.405-47.523C239.852,14.452,221.521,0,200.242,0 h-46.972c-20.912,0-39.166,14.143-44.389,34.393L96.817,81.169c-0.211,0.816-0.317,1.655-0.317,2.498v90 c0,22.792,18.542,41.333,41.333,41.333H166.5v5H123c-9.386,0-17.641,4.909-22.35,12.289h-8.72c-7.681,0-13.93-6.249-13.93-13.93 v-52.511c3.794-1.42,6.5-5.068,6.5-9.358c0-5.523-4.478-10-10-10h-13c-5.522,0-10,4.477-10,10c0,4.29,2.706,7.938,6.5,9.358v52.511 c0,18.709,15.221,33.93,33.93,33.93h4.57v9.211c0,5.523,4.478,10,10,10h60v32.924l-39.909,7.76 c-4.698,0.914-8.091,5.029-8.091,9.816v21c0,5.523,4.478,10,10,10s10-4.477,10-10v-12.757l28-5.444V343c0,5.523,4.478,10,10,10 s10-4.477,10-10v-18.202l28,5.444V343c0,5.523,4.478,10,10,10s10-4.477,10-10v-21c0-4.787-3.393-8.902-8.091-9.816l-39.909-7.76 V271.5h60c5.522,0,10-4.477,10-10v-9.211h4.57c18.709,0,33.93-15.221,33.93-33.93v-52.511 C298.794,164.427,301.5,160.779,301.5,156.49z M116.5,173.667V84.936l11.747-45.547C131.192,27.973,141.481,20,153.271,20h46.972 c11.995,0,22.329,8.147,25.129,19.811L236.5,86.183v87.483c0,11.763-9.57,21.333-21.333,21.333h-77.334 C126.07,195,116.5,185.43,116.5,173.667z M116.5,246.5c0-3.584,2.916-6.5,6.5-6.5h107c3.584,0,6.5,2.916,6.5,6.5v5h-120V246.5z"/> </g> </g>
</svg>