<!DOCTYPE svg PUBLIC "-//W3C//DTD SVG 1.1//EN" "http://www.w3.org/Graphics/SVG/1.1/DTD/svg11.dtd">
<!-- Uploaded to: SVG Repo, www.svgrepo.com, Transformed by: SVG Repo Mixer Tools -->
<svg version="1.1" id="Layer_1" xmlns="http://www.w3.org/2000/svg" xmlns:xlink="http://www.w3.org/1999/xlink" viewBox="0 0 512 512" xml:space="preserve" width="800px" height="800px" fill="#000000">
<g id="SVGRepo_bgCarrier" stroke-width="0"/>
<g id="SVGRepo_tracerCarrier" stroke-linecap="round" stroke-linejoin="round"/>
<g id="SVGRepo_iconCarrier"> <path style="fill:#9ed6d6;" d="M485.083,466.756H26.917c-10.122,0-18.327-8.205-18.327-18.327V63.57 c0-10.122,8.205-18.327,18.327-18.327h458.166c10.122,0,18.327,8.205,18.327,18.327V448.43 C503.409,458.552,495.205,466.756,485.083,466.756z"/> <circle style="fill:#FFFFFF;" cx="256" cy="292.653" r="146.613"/> <path style="fill:#9ed6d6;" d="M118.55,45.244h366.532c10.122,0,18.327,8.205,18.327,18.327v18.327H118.55V45.244z"/> <path style="fill:#FF507D;" d="M26.917,45.244h18.327v36.653H8.591V63.57C8.591,53.448,16.795,45.244,26.917,45.244z"/> <rect x="45.244" y="45.244" style="fill:#FFDC64;" width="36.653" height="36.653"/> <rect x="81.897" y="45.244" style="fill:#B4E66E;" width="36.653" height="36.653"/> <path style="fill:#14bab9;" d="M466.756,45.244h18.327c10.122,0,18.327,8.205,18.327,18.327v18.327h-36.653V45.244z"/> <g> <circle style="fill:#14bab9;" cx="182.694" cy="384.286" r="18.327"/> <circle style="fill:#14bab9;" cx="338.47" cy="384.286" r="18.327"/> </g> <path style="fill:#9ed6d6;" d="M168.949,228.51l36.155,96.415c2.979,7.942,11.017,12.802,19.433,11.751l116.206-14.526 c9.171-1.147,16.054-8.943,16.054-18.185V228.51H168.949z"/> <path d="M485.083,36.653H26.917C12.075,36.653,0,48.728,0,63.57V448.43c0,14.842,12.075,26.917,26.917,26.917h458.166 c14.842,0,26.917-12.075,26.917-26.917V63.57C512,48.728,499.925,36.653,485.083,36.653z M494.819,63.57v9.736h-19.472V53.834h9.736 C490.451,53.834,494.819,58.202,494.819,63.57z M127.141,73.306V53.834h331.025v19.472H127.141z M90.488,73.306V53.834h19.472 v19.472H90.488z M53.834,73.306V53.834h19.472v19.472H53.834z M26.917,53.834h9.736v19.472H17.181V63.57 C17.181,58.202,21.549,53.834,26.917,53.834z M485.083,458.166H26.917c-5.369,0-9.736-4.367-9.736-9.736V90.488h477.638V448.43 C494.819,453.798,490.451,458.166,485.083,458.166z"/> <path d="M466.756,109.96H45.244c-4.744,0-8.591,3.846-8.591,8.591c0,4.744,3.846,8.591,8.591,8.591h421.512 c4.744,0,8.591-3.846,8.591-8.591C475.347,113.806,471.5,109.96,466.756,109.96z"/> <path d="M356.796,219.919h-54.98c-4.744,0-8.591,3.846-8.591,8.591c0,4.744,3.846,8.591,8.591,8.591h46.389v66.864 c0,4.9-3.666,9.053-8.529,9.66l-116.206,14.526c-4.492,0.561-8.735-2.006-10.324-6.243l-31.804-84.808h47.166 c4.744,0,8.591-3.846,8.591-8.591c0-4.744-3.846-8.591-8.591-8.591h-53.609l-7.195-19.187 c-3.917-10.447-14.046-17.466-25.203-17.466h-14.79c-4.744,0-8.591,3.846-8.591,8.591c0,4.744,3.846,8.591,8.591,8.591h14.79 c4.035,0,7.698,2.539,9.115,6.318l45.441,121.177c1.113,2.969,2.711,5.627,4.66,7.937l-13.27,22.117 c-1.856-0.405-3.781-0.627-5.757-0.627c-14.842,0-26.917,12.075-26.917,26.917s12.075,26.917,26.917,26.917 c11.839,0,21.909-7.686,25.504-18.327h104.77c3.594,10.641,13.665,18.327,25.504,18.327c14.842,0,26.917-12.075,26.917-26.917 s-12.075-26.917-26.917-26.917c-11.839,0-21.909,7.686-25.504,18.327h-104.77c-1.106-3.276-2.826-6.27-5.023-8.847l13.246-22.077 c1.88,0.415,3.817,0.64,5.791,0.64c1.12,0,2.254-0.07,3.39-0.212l116.206-14.526c13.444-1.68,23.581-13.163,23.581-26.71V228.51 C365.387,223.766,361.541,219.919,356.796,219.919z M182.694,394.022c-5.369,0-9.736-4.367-9.736-9.736 c0-5.369,4.367-9.736,9.736-9.736s9.736,4.367,9.736,9.736C192.43,389.655,188.062,394.022,182.694,394.022z M338.47,374.55 c5.369,0,9.736,4.367,9.736,9.736c0,5.369-4.367,9.736-9.736,9.736c-5.369,0-9.736-4.367-9.736-9.736 C328.734,378.918,333.101,374.55,338.47,374.55z"/> <path d="M265.163,164.94c-4.744,0-8.591,3.846-8.591,8.591v98.384l-12.825-12.825c-3.355-3.355-8.794-3.355-12.148,0 c-3.355,3.355-3.355,8.793,0,12.148l27.49,27.49c1.677,1.677,3.876,2.516,6.074,2.516c2.198,0,4.397-0.838,6.074-2.516l27.49-27.49 c3.355-3.355,3.355-8.793,0-12.148c-3.355-3.355-8.794-3.355-12.148,0l-12.825,12.825V173.53 C273.754,168.786,269.908,164.94,265.163,164.94z"/> </g>
</svg>