<svg xmlns="http://www.w3.org/2000/svg" id="_1" data-name="1" viewBox="0 0 55 55"><defs><style> .cls-1 { stroke: #e42327; } .cls-1, .cls-2 { fill: #e42327; } .cls-1, .cls-2, .cls-3 { stroke-miterlimit: 10; } .cls-2, .cls-3 { stroke: #999; } .cls-3 { fill: none; } </style></defs><path class="cls-1" d="M27.58,49h-6c-.28,0-.5-.22-.5-.5s.22-.5.5-.5h5.5v-9H2.08v5.5c0,1.93,1.57,3.5,3.5,3.5h2c.28,0,.5.22.5.5s-.22.5-.5.5h-2c-2.48,0-4.5-2.02-4.5-4.5v-6c0-.28.22-.5.5-.5h26c.28,0,.5.22.5.5v10c0,.28-.22.5-.5.5Z"></path><path class="cls-1" d="M4.02,43H1.58c-.28,0-.5-.22-.5-.5v-4c0-.13.05-.26.15-.35.09-.09.22-.15.35-.15h5c.15,0,.3.07.39.19.09.12.13.28.09.43l-.62,2.49c-.28,1.12-1.28,1.89-2.43,1.89ZM2.08,42h1.94c.69,0,1.29-.47,1.46-1.14l.47-1.86h-3.86v3Z"></path><path class="cls-1" d="M14.58,54c-3.03,0-5.5-2.47-5.5-5.5s2.47-5.5,5.5-5.5,5.5,2.47,5.5,5.5-2.47,5.5-5.5,5.5ZM14.58,44c-2.48,0-4.5,2.02-4.5,4.5s2.02,4.5,4.5,4.5,4.5-2.02,4.5-4.5-2.02-4.5-4.5-4.5Z"></path><path class="cls-3" d="M14.58,51c-1.38,0-2.5-1.12-2.5-2.5s1.12-2.5,2.5-2.5,2.5,1.12,2.5,2.5-1.12,2.5-2.5,2.5ZM14.58,47c-.83,0-1.5.67-1.5,1.5s.67,1.5,1.5,1.5,1.5-.67,1.5-1.5-.67-1.5-1.5-1.5Z"></path><path class="cls-1" d="M50.13,49h-1.55c-.28,0-.5-.22-.5-.5s.22-.5.5-.5h1.55c.52,0,1-.2,1.37-.57l1.01-1.01c.37-.37.57-.85.57-1.37v-7.27c0-1.66-1.18-3.11-2.81-3.43l-14.37-2.87c-1.63-.33-2.81-1.77-2.81-3.43v-9.04h-3.5c-.83,0-1.5.67-1.5,1.5v27.5h6.5c.28,0,.5.22.5.5s-.22.5-.5.5h-7c-.28,0-.5-.22-.5-.5v-28c0-1.38,1.12-2.5,2.5-2.5h4c.28,0,.5.22.5.5v9.54c0,1.19.85,2.22,2.01,2.45l14.37,2.87c2.1.42,3.62,2.28,3.62,4.41v7.27c0,.79-.31,1.52-.86,2.08l-1.01,1.01c-.55.55-1.29.86-2.08.86Z"></path><path class="cls-1" d="M48.2,33.92s-.07,0-.1,0l-12.21-2.44c-1.63-.33-2.81-1.77-2.81-3.43v-9.54c0-.28.22-.5.5-.5h3.96c2.04,0,3.89,1.15,4.82,2.99,1.53,3.03,6.24,12.12,6.29,12.21.09.17.07.38-.04.53-.1.13-.24.2-.4.2ZM34.08,19v9.04c0,1.19.85,2.22,2.01,2.45h0l11.19,2.24c-1.25-2.41-4.58-8.83-5.82-11.29-.76-1.5-2.26-2.44-3.92-2.44h-3.46Z"></path><path class="cls-1" d="M53.58,43h-3.15c-1.33,0-2.54-.74-3.13-1.93l-1.17-2.34c-.08-.16-.07-.34.02-.49.09-.15.25-.24.43-.24h7c.28,0,.5.22.5.5v4c0,.28-.22.5-.5.5ZM47.39,39l.81,1.62c.43.85,1.28,1.38,2.24,1.38h2.65v-3h-5.69Z"></path><path class="cls-1" d="M41.58,54c-3.03,0-5.5-2.47-5.5-5.5s2.47-5.5,5.5-5.5,5.5,2.47,5.5,5.5-2.47,5.5-5.5,5.5ZM41.58,44c-2.48,0-4.5,2.02-4.5,4.5s2.02,4.5,4.5,4.5,4.5-2.02,4.5-4.5-2.02-4.5-4.5-4.5Z"></path><path class="cls-3" d="M41.58,51c-1.38,0-2.5-1.12-2.5-2.5s1.12-2.5,2.5-2.5,2.5,1.12,2.5,2.5-1.12,2.5-2.5,2.5ZM41.58,47c-.83,0-1.5.67-1.5,1.5s.67,1.5,1.5,1.5,1.5-.67,1.5-1.5-.67-1.5-1.5-1.5Z"></path><path class="cls-2" d="M41.39,35.56s-.07,0-.1,0l-5.4-1.08c-.27-.05-.45-.32-.39-.59.05-.27.33-.45.59-.39l5.4,1.08c.27.05.45.32.39.59-.05.24-.26.4-.49.4Z"></path><path class="cls-1" d="M27.58,39H1.58c-.28,0-.5-.22-.5-.5V13.5c0-.83.67-1.5,1.5-1.5h24c.83,0,1.5.67,1.5,1.5v25c0,.28-.22.5-.5.5ZM2.08,38h25V13.5c0-.28-.22-.5-.5-.5H2.58c-.28,0-.5.22-.5.5v24.5Z"></path><path class="cls-1" d="M21.58,20c-.28,0-.5-.22-.5-.5V5.5c0-1.93-1.57-3.5-3.5-3.5h-6c-1.93,0-3.5,1.57-3.5,3.5v14c0,.28-.22.5-.5.5s-.5-.22-.5-.5V5.5c0-2.48,2.02-4.5,4.5-4.5h6c2.48,0,4.5,2.02,4.5,4.5v14c0,.28-.22.5-.5.5Z"></path></svg>