<svg xmlns="http://www.w3.org/2000/svg" id="_1" data-name="1" viewBox="0 0 55 55"><defs><style> .cls-1 { fill: #e42327; stroke: #e42327; } .cls-1, .cls-2 { stroke-miterlimit: 10; } .cls-2 { fill: #999; stroke: #999; } </style></defs><path class="cls-2" d="M24.5,12h-6c-.83,0-1.5-.67-1.5-1.5v-4c0-.83.67-1.5,1.5-1.5h6c.83,0,1.5.67,1.5,1.5v4c0,.83-.67,1.5-1.5,1.5ZM18.5,6c-.28,0-.5.22-.5.5v4c0,.28.22.5.5.5h6c.28,0,.5-.22.5-.5v-4c0-.28-.22-.5-.5-.5h-6Z"></path><path class="cls-2" d="M29.5,20h-12c-.28,0-.5-.22-.5-.5s.22-.5.5-.5h12c.28,0,.5.22.5.5s-.22.5-.5.5Z"></path><path class="cls-2" d="M40.5,20h-8c-.28,0-.5-.22-.5-.5s.22-.5.5-.5h8c.28,0,.5.22.5.5s-.22.5-.5.5Z"></path><path class="cls-2" d="M46.5,12c-1.93,0-3.5-1.57-3.5-3.5s1.57-3.5,3.5-3.5,3.5,1.57,3.5,3.5-1.57,3.5-3.5,3.5ZM46.5,6c-1.38,0-2.5,1.12-2.5,2.5s1.12,2.5,2.5,2.5,2.5-1.12,2.5-2.5-1.12-2.5-2.5-2.5Z"></path><path class="cls-2" d="M42.5,12c-1.93,0-3.5-1.57-3.5-3.5s1.57-3.5,3.5-3.5c.86,0,1.69.32,2.34.89.21.18.22.5.04.71-.18.21-.5.22-.71.04-.46-.41-1.05-.64-1.67-.64-1.38,0-2.5,1.12-2.5,2.5s1.12,2.5,2.5,2.5c.62,0,1.21-.23,1.67-.64.2-.19.52-.17.71.04.18.21.17.52-.04.71-.64.58-1.47.89-2.34.89Z"></path><path class="cls-2" d="M17.5,16.5c-.28,0-.5-.22-.5-.5v-1c0-.28.22-.5.5-.5s.5.22.5.5v1c0,.28-.22.5-.5.5Z"></path><path class="cls-2" d="M20.41,16.5c-.28,0-.5-.22-.5-.5v-1c0-.28.22-.5.5-.5s.5.22.5.5v1c0,.28-.22.5-.5.5Z"></path><path class="cls-2" d="M23.32,16.5c-.28,0-.5-.22-.5-.5v-1c0-.28.22-.5.5-.5s.5.22.5.5v1c0,.28-.22.5-.5.5Z"></path><path class="cls-2" d="M26.23,16.5c-.28,0-.5-.22-.5-.5v-1c0-.28.22-.5.5-.5s.5.22.5.5v1c0,.28-.22.5-.5.5Z"></path><path class="cls-2" d="M29.14,16.5c-.28,0-.5-.22-.5-.5v-1c0-.28.22-.5.5-.5s.5.22.5.5v1c0,.28-.22.5-.5.5Z"></path><path class="cls-2" d="M32.05,16.5c-.28,0-.5-.22-.5-.5v-1c0-.28.22-.5.5-.5s.5.22.5.5v1c0,.28-.22.5-.5.5Z"></path><path class="cls-2" d="M34.95,16.5c-.28,0-.5-.22-.5-.5v-1c0-.28.22-.5.5-.5s.5.22.5.5v1c0,.28-.22.5-.5.5Z"></path><path class="cls-2" d="M37.86,16.5c-.28,0-.5-.22-.5-.5v-1c0-.28.22-.5.5-.5s.5.22.5.5v1c0,.28-.22.5-.5.5Z"></path><path class="cls-2" d="M40.77,16.5c-.28,0-.5-.22-.5-.5v-1c0-.28.22-.5.5-.5s.5.22.5.5v1c0,.28-.22.5-.5.5Z"></path><path class="cls-2" d="M43.68,16.5c-.28,0-.5-.22-.5-.5v-1c0-.28.22-.5.5-.5s.5.22.5.5v1c0,.28-.22.5-.5.5Z"></path><path class="cls-2" d="M46.59,16.5c-.28,0-.5-.22-.5-.5v-1c0-.28.22-.5.5-.5s.5.22.5.5v1c0,.28-.22.5-.5.5Z"></path><path class="cls-2" d="M49.5,16.5c-.28,0-.5-.22-.5-.5v-1c0-.28.22-.5.5-.5s.5.22.5.5v1c0,.28-.22.5-.5.5Z"></path><path class="cls-1" d="M51.5,30h-4c-.28,0-.5-.22-.5-.5s.22-.5.5-.5h4c.83,0,1.5-.67,1.5-1.5V3.5c0-.83-.67-1.5-1.5-1.5H15.5c-.83,0-1.5.67-1.5,1.5v18c0,.28-.22.5-.5.5s-.5-.22-.5-.5V3.5c0-1.38,1.12-2.5,2.5-2.5h36c1.38,0,2.5,1.12,2.5,2.5v24c0,1.38-1.12,2.5-2.5,2.5Z"></path><path class="cls-1" d="M38.5,50H8.5c-.28,0-.5-.22-.5-.5,0-1.38-1.12-2.5-2.5-2.5-.28,0-.5-.22-.5-.5v-16c0-.28.22-.5.5-.5,1.38,0,2.5-1.12,2.5-2.5,0-.28.22-.5.5-.5h30c.28,0,.5.22.5.5,0,1.38,1.12,2.5,2.5,2.5.28,0,.5.22.5.5v16c0,.28-.22.5-.5.5-1.38,0-2.5,1.12-2.5,2.5,0,.28-.22.5-.5.5ZM8.96,49h29.07c.22-1.53,1.43-2.74,2.96-2.96v-15.07c-1.53-.22-2.74-1.43-2.96-2.96H8.96c-.22,1.53-1.43,2.74-2.96,2.96v15.07c1.53.22,2.74,1.43,2.96,2.96Z"></path><path class="cls-2" d="M34,41c-1.38,0-2.5-1.12-2.5-2.5s1.12-2.5,2.5-2.5,2.5,1.12,2.5,2.5-1.12,2.5-2.5,2.5ZM34,37c-.83,0-1.5.67-1.5,1.5s.67,1.5,1.5,1.5,1.5-.67,1.5-1.5-.67-1.5-1.5-1.5Z"></path><path class="cls-2" d="M13,41c-1.38,0-2.5-1.12-2.5-2.5s1.12-2.5,2.5-2.5,2.5,1.12,2.5,2.5-1.12,2.5-2.5,2.5ZM13,37c-.83,0-1.5.67-1.5,1.5s.67,1.5,1.5,1.5,1.5-.67,1.5-1.5-.67-1.5-1.5-1.5Z"></path><path class="cls-1" d="M44.5,54H2.5c-.83,0-1.5-.67-1.5-1.5v-28c0-.83.67-1.5,1.5-1.5h42c.83,0,1.5.67,1.5,1.5v28c0,.83-.67,1.5-1.5,1.5ZM2.5,24c-.28,0-.5.22-.5.5v28c0,.28.22.5.5.5h42c.28,0,.5-.22.5-.5v-28c0-.28-.22-.5-.5-.5H2.5Z"></path><path class="cls-2" d="M24.28,45.26h-1.56c-1.57,0-2.85-1.28-2.85-2.85,0-.28.22-.5.5-.5s.5.22.5.5c0,1.02.83,1.85,1.85,1.85h1.56c1.02,0,1.85-.83,1.85-1.85v-1.57c0-1.02-.83-1.85-1.85-1.85h-1.56c-1.57,0-2.85-1.28-2.85-2.85v-1.57c0-1.57,1.28-2.85,2.85-2.85h1.56c1.57,0,2.85,1.28,2.85,2.85,0,.28-.22.5-.5.5s-.5-.22-.5-.5c0-1.02-.83-1.85-1.85-1.85h-1.56c-1.02,0-1.85.83-1.85,1.85v1.57c0,1.02.83,1.85,1.85,1.85h1.56c1.57,0,2.85,1.28,2.85,2.85v1.57c0,1.57-1.28,2.85-2.85,2.85Z"></path><path class="cls-2" d="M23.5,32.74c-.28,0-.5-.22-.5-.5v-2.74c0-.28.22-.5.5-.5s.5.22.5.5v2.74c0,.28-.22.5-.5.5Z"></path><path class="cls-2" d="M23.5,48c-.28,0-.5-.22-.5-.5v-2.74c0-.28.22-.5.5-.5s.5.22.5.5v2.74c0,.28-.22.5-.5.5Z"></path></svg>