<svg xmlns="http://www.w3.org/2000/svg" id="_1" data-name="1" viewBox="0 0 55 55"><defs><style> .cls-1, .cls-2 { stroke: #e42327; } .cls-1, .cls-2, .cls-3 { stroke-miterlimit: 10; } .cls-1, .cls-3 { fill: none; } .cls-2 { fill: #e42327; } .cls-3 { stroke: #999; } </style></defs><path class="cls-1" d="M29.47,54.5c-.67,0-1.29-.26-1.77-.73l-14.14-14.14c-.47-.47-.73-1.1-.73-1.77s.26-1.3.73-1.77l21.28-21.28c.85-.85,1.98-1.32,3.18-1.32h11.31c2.48,0,4.5,2.02,4.5,4.5v11.31c0,1.2-.47,2.33-1.32,3.18l-21.28,21.28c-.47.47-1.1.73-1.77.73ZM38.03,14.5c-.93,0-1.81.36-2.47,1.02l-21.28,21.28c-.28.28-.44.66-.44,1.06s.16.78.44,1.06l14.14,14.14c.57.57,1.55.57,2.12,0l21.28-21.28c.66-.66,1.02-1.54,1.02-2.47v-11.31c0-1.93-1.57-3.5-3.5-3.5h-11.31ZM45.01,26.43c-2.26,0-4.1-1.84-4.1-4.1s1.84-4.1,4.1-4.1,4.1,1.84,4.1,4.1-1.84,4.1-4.1,4.1ZM45.01,19.23c-1.71,0-3.1,1.39-3.1,3.1s1.39,3.1,3.1,3.1,3.1-1.39,3.1-3.1-1.39-3.1-3.1-3.1Z"></path><path class="cls-2" d="M21.69,26.49H3.34c-1.38,0-2.5-1.12-2.5-2.5V4C.84,2.62,1.96,1.5,3.34,1.5h30.09c1.2,0,2.33.47,3.18,1.32l8,8c.3.3.55.63.75.99.13.24.05.55-.19.68-.24.13-.55.05-.68-.19-.16-.28-.35-.54-.58-.77l-8-8c-.66-.66-1.54-1.02-2.47-1.02H3.34c-.83,0-1.5.67-1.5,1.5v19.99c0,.83.67,1.5,1.5,1.5h18.35c.28,0,.5.22.5.5s-.22.5-.5.5Z"></path><path class="cls-1" d="M32.01,15.96c-.19,0-.37-.11-.46-.3-.68-1.54-.34-3.37.85-4.56.77-.77,1.8-1.2,2.9-1.2s2.12.43,2.9,1.2c.19.19.36.4.51.62.15.23.09.54-.14.69-.23.15-.54.09-.69-.14-.11-.17-.24-.33-.39-.47-1.17-1.17-3.21-1.17-4.38,0-.9.9-1.16,2.29-.64,3.45.11.25,0,.55-.25.66-.07.03-.13.04-.2.04Z"></path><path class="cls-3" d="M43.34,22.5c-4.69,0-8.5-4.71-8.5-10.5,0-.55.04-1.11.11-1.66.04-.27.29-.46.56-.43.27.04.47.29.43.56-.06.51-.1,1.03-.1,1.54,0,5.24,3.36,9.5,7.5,9.5,1.52,0,2.99-.58,4.25-1.67.21-.18.52-.16.71.05.18.21.16.52-.05.71-1.44,1.26-3.13,1.92-4.9,1.92Z"></path><path class="cls-3" d="M51.11,14.91s-.07,0-.1,0c-.27-.05-.45-.32-.39-.59.15-.75.22-1.53.22-2.31,0-5.24-3.36-9.5-7.5-9.5-1.91,0-3.73.91-5.12,2.57-.18.21-.49.24-.7.06-.21-.18-.24-.49-.06-.7,1.59-1.89,3.68-2.92,5.89-2.92,4.69,0,8.5,4.71,8.5,10.5,0,.85-.08,1.69-.24,2.51-.05.24-.26.4-.49.4Z"></path><path class="cls-3" d="M29.73,42.18c-.87,0-1.69-.34-2.31-.96l-1.3-1.3c-.62-.62-.96-1.44-.96-2.31s.34-1.69.96-2.31c.2-.2.51-.2.71,0s.2.51,0,.71c-.43.43-.66,1-.66,1.6s.24,1.17.66,1.6l1.3,1.3c.86.86,2.35.86,3.21,0l1.3-1.3c.88-.88.88-2.32,0-3.21l-1.3-1.3c-1.27-1.27-1.27-3.35,0-4.62l1.3-1.3c1.24-1.23,3.39-1.23,4.62,0l1.3,1.3c.62.62.96,1.44.96,2.31s-.34,1.69-.96,2.31c-.2.2-.51.2-.71,0s-.2-.51,0-.71c.43-.43.66-1,.66-1.6s-.24-1.17-.66-1.6l-1.3-1.3c-.86-.86-2.35-.86-3.21,0l-1.3,1.3c-.88.88-.88,2.32,0,3.21l1.3,1.3c1.27,1.27,1.27,3.35,0,4.62l-1.3,1.3c-.62.62-1.44.96-2.31.96Z"></path><path class="cls-3" d="M37.56,30.28c-.13,0-.26-.05-.35-.15-.2-.2-.2-.51,0-.71l2.28-2.28c.2-.2.51-.2.71,0s.2.51,0,.71l-2.28,2.28c-.1.1-.23.15-.35.15Z"></path><path class="cls-3" d="M24.84,43c-.13,0-.26-.05-.35-.15-.2-.2-.2-.51,0-.71l2.28-2.28c.2-.2.51-.2.71,0,.2.2.2.51,0,.71l-2.28,2.28c-.1.1-.23.15-.35.15Z"></path><path class="cls-3" d="M21.95,18.19c-.28,0-.5-.22-.5-.5s.22-.5.5-.5c1.25,0,2.27-1.02,2.27-2.27v-1.84c0-1.25-1.02-2.27-2.27-2.27h-1.84c-1.25,0-2.27,1.02-2.27,2.27v1.84c0,1.8-1.47,3.27-3.27,3.27h-1.84c-1.8,0-3.27-1.47-3.27-3.27v-1.84c0-1.8,1.47-3.27,3.27-3.27.28,0,.5.22.5.5s-.22.5-.5.5c-1.25,0-2.27,1.02-2.27,2.27v1.84c0,1.25,1.02,2.27,2.27,2.27h1.84c1.25,0,2.27-1.02,2.27-2.27v-1.84c0-1.8,1.47-3.27,3.27-3.27h1.84c1.8,0,3.27,1.47,3.27,3.27v1.84c0,1.8-1.47,3.27-3.27,3.27Z"></path><path class="cls-3" d="M27.94,14.5h-3.23c-.28,0-.5-.22-.5-.5s.22-.5.5-.5h3.23c.28,0,.5.22.5.5s-.22.5-.5.5Z"></path><path class="cls-3" d="M9.96,14.5h-3.23c-.28,0-.5-.22-.5-.5s.22-.5.5-.5h3.23c.28,0,.5.22.5.5s-.22.5-.5.5Z"></path></svg>