<svg xmlns="http://www.w3.org/2000/svg" id="_1" data-name="1" viewBox="0 0 55 55"><defs><style> .cls-1 { fill: #e42327; stroke: #e42327; } .cls-1, .cls-2 { stroke-miterlimit: 10; } .cls-2 { fill: #999; stroke: #999; } </style></defs><path class="cls-1" d="M49.48,21.16c-.28,0-.5-.22-.5-.5v-1c0-9.65-7.85-17.5-17.5-17.5h-8C13.83,2.16,5.98,10.01,5.98,19.66v1c0,.28-.22.5-.5.5s-.5-.22-.5-.5v-1C4.98,9.46,13.28,1.16,23.48,1.16h8c10.2,0,18.5,8.3,18.5,18.5v1c0,.28-.22.5-.5.5Z"></path><path class="cls-1" d="M8.48,38.16c-1.93,0-3.5-1.57-3.5-3.5v-14c0-1.93,1.57-3.5,3.5-3.5s3.5,1.57,3.5,3.5v14c0,1.93-1.57,3.5-3.5,3.5ZM8.48,18.16c-1.38,0-2.5,1.12-2.5,2.5v14c0,1.38,1.12,2.5,2.5,2.5s2.5-1.12,2.5-2.5v-14c0-1.38-1.12-2.5-2.5-2.5Z"></path><path class="cls-1" d="M5.48,35.16c-2.48,0-4.5-2.02-4.5-4.5v-6c0-2.48,2.02-4.5,4.5-4.5.28,0,.5.22.5.5v14c0,.28-.22.5-.5.5ZM4.98,21.2c-1.69.24-3,1.7-3,3.46v6c0,1.76,1.31,3.22,3,3.46v-12.93Z"></path><path class="cls-1" d="M46.48,38.16c-1.93,0-3.5-1.57-3.5-3.5v-14c0-1.93,1.57-3.5,3.5-3.5s3.5,1.57,3.5,3.5v14c0,1.93-1.57,3.5-3.5,3.5ZM46.48,18.16c-1.38,0-2.5,1.12-2.5,2.5v14c0,1.38,1.12,2.5,2.5,2.5s2.5-1.12,2.5-2.5v-14c0-1.38-1.12-2.5-2.5-2.5Z"></path><path class="cls-2" d="M31.48,40.16h-8c-.28,0-.5-.22-.5-.5v-15c0-.28.22-.5.5-.5h8c.28,0,.5.22.5.5v15c0,.28-.22.5-.5.5ZM23.98,39.16h7v-14h-7v14Z"></path><path class="cls-1" d="M49.48,35.16c-.28,0-.5-.22-.5-.5v-14c0-.28.22-.5.5-.5,2.48,0,4.5,2.02,4.5,4.5v6c0,2.48-2.02,4.5-4.5,4.5ZM49.98,21.2v12.93c1.69-.24,3-1.7,3-3.46v-6c0-1.76-1.31-3.22-3-3.46Z"></path><path class="cls-1" d="M30.48,54.16h-6c-1.93,0-3.5-1.57-3.5-3.5s1.57-3.5,3.5-3.5h6c1.93,0,3.5,1.57,3.5,3.5s-1.57,3.5-3.5,3.5ZM24.48,48.16c-1.38,0-2.5,1.12-2.5,2.5s1.12,2.5,2.5,2.5h6c1.38,0,2.5-1.12,2.5-2.5s-1.12-2.5-2.5-2.5h-6Z"></path><path class="cls-1" d="M35.48,51.16h-2c-.28,0-.5-.22-.5-.5s.22-.5.5-.5h2c7.44,0,13.5-6.06,13.5-13.5v-2c0-.28.22-.5.5-.5s.5.22.5.5v2c0,8-6.5,14.5-14.5,14.5Z"></path><path class="cls-1" d="M40.77,9.21c-.83,0-1.66-.23-2.39-.7-2.35-1.53-5.08-2.34-7.9-2.34h-6c-2.82,0-5.55.81-7.9,2.34-1.74,1.14-4.09.88-5.58-.62l-.6-.6c-.2-.2-.2-.51,0-.71.2-.2.51-.2.71,0l.6.6c1.16,1.16,2.98,1.36,4.33.49,2.51-1.64,5.43-2.5,8.45-2.5h6c3.01,0,5.93.87,8.45,2.5,1.35.88,3.17.67,4.33-.49l.6-.6c.2-.2.51-.2.71,0,.2.2.2.51,0,.71l-.6.6c-.87.87-2.03,1.32-3.19,1.32Z"></path><path class="cls-2" d="M27.48,21.16c-2.48,0-4.5-2.02-4.5-4.5s2.02-4.5,4.5-4.5,4.5,2.02,4.5,4.5-2.02,4.5-4.5,4.5ZM27.48,13.16c-1.93,0-3.5,1.57-3.5,3.5s1.57,3.5,3.5,3.5,3.5-1.57,3.5-3.5-1.57-3.5-3.5-3.5Z"></path><path class="cls-2" d="M32.48,25.16h-10c-.28,0-.5-.22-.5-.5s.22-.5.5-.5h10c.28,0,.5.22.5.5s-.22.5-.5.5Z"></path><path class="cls-2" d="M32.48,40.16h-10c-.28,0-.5-.22-.5-.5s.22-.5.5-.5h10c.28,0,.5.22.5.5s-.22.5-.5.5Z"></path></svg>